<svg width="76" height="75" viewBox="0 0 76 75" fill="none" xmlns="http://www.w3.org/2000/svg">
<g clip-path="url(#clip0_182_1650)">
<g opacity="0.9">
<path fill-rule="evenodd" clip-rule="evenodd" d="M16.7703 35.7624C15.3828 36.3007 14.0904 37.0371 12.7095 37.2806C10.7571 37.6247 9.16864 36.7022 8.31947 34.9198C7.50148 33.2064 7.51579 31.3767 8.84093 29.9109C13.7928 24.434 19.6793 20.5082 27.1256 19.1598C28.3349 18.8931 29.4573 18.3282 30.3893 17.5171C32.0872 16.0808 33.578 14.4046 35.1726 12.8458C37.126 10.9352 39.3694 10.3965 42.0365 11.2163C42.4341 11.3076 42.8464 11.3162 43.2475 11.2415C43.6486 11.1668 44.0299 11.0105 44.3673 10.7823C50.4613 6.08244 58.1663 6.36045 63.3375 11.5594C68.3727 16.6221 68.6033 24.4467 63.9914 30.3139C63.5072 30.93 63.4873 31.9683 63.4111 32.8247C63.2899 34.1863 63.5348 35.6201 63.1903 36.9096C62.8871 38.0425 62.8677 38.817 63.7838 39.5886C68.5 43.5616 68.1652 46.1542 63.6816 50.1364C62.017 51.6154 60.5119 53.2713 58.9306 54.8428C57.8176 55.9493 57.7174 57.0542 58.6238 58.4082C60.4132 61.0714 60.1954 62.6775 57.9469 64.9936C57.4592 65.4958 56.9505 65.9792 56.4643 66.4849C54.7829 68.2384 54.7742 69.0261 56.3968 70.8589C56.6494 71.145 57.0313 71.4104 57.1003 71.7382C57.2104 72.1869 57.1469 72.6604 56.9224 73.0647C56.7491 73.1713 56.5516 73.2329 56.3481 73.2437C56.1446 73.2545 55.9416 73.2143 55.7578 73.1267C52.788 71.1735 52.2302 68.095 54.1218 65.8043C54.8887 64.8762 55.7931 64.0559 56.6484 63.2C57.7036 62.1449 57.8002 61.073 56.972 59.7866C55.1315 56.9287 55.3478 55.35 57.79 52.8921C59.8109 50.8591 61.8733 48.8668 63.8738 46.8139C65.4045 45.2439 65.4116 44.3235 63.8426 42.756C60.4311 39.3446 61.4357 39.6953 58.2348 42.6035C56.5179 44.108 55.374 46.1538 54.995 48.3976C53.7256 54.9993 49.995 60.272 45.1735 64.8305C43.1137 66.7776 40.4747 66.9515 38.5989 65.3545C36.6434 63.69 36.4772 61.0481 38.1776 58.6882C38.3975 58.3833 38.6035 58.0697 38.8085 57.7734C36.5621 55.4075 36.1547 55.3922 33.9722 57.5604C31.2626 60.2542 28.5627 62.9622 25.8337 65.6391C25.0939 66.3649 24.782 67.0007 25.1471 68.1352C25.965 70.6764 24.4001 73.8515 21.869 74.931C21.5522 75.0072 21.2219 75.009 20.9043 74.9365C20.5867 74.864 20.2904 74.7191 20.0387 74.5133C17.4907 72.1087 15.0418 69.602 12.5475 67.1405C11.46 66.0671 12.026 65.2513 12.8828 64.4046C16.2826 61.0471 19.6704 57.6778 23.0464 54.2969C23.4942 53.8497 24.0688 53.4019 24.2437 52.8479C24.3244 52.5625 24.3382 52.2625 24.2841 51.9709C24.2299 51.6794 24.1093 51.404 23.9313 51.1661C23.5975 50.8611 22.7386 50.8611 22.2386 51.0563C21.6834 51.3681 21.1945 51.7841 20.7989 52.2812C17.5392 55.5086 14.2959 58.7518 11.0342 61.9751C9.40893 63.5802 9.00043 63.5914 7.42325 62.0458C5.19422 59.8603 3.01223 57.6275 0.772472 55.4542C-0.271999 54.4403 -0.257676 53.5681 0.764812 52.5368C2.31388 50.974 3.80773 49.4802 6.32612 49.6962C6.93143 49.747 7.71517 49.159 8.22386 48.6675C11.0648 45.9229 13.8476 43.1194 16.6471 40.3321C18.8511 38.1431 18.8496 38.1416 16.7703 35.7624ZM51.8928 35.5551C51.295 35.1422 50.6633 34.7802 50.0042 34.473C44.9981 32.6773 41.4972 29.422 40.0258 24.2571C39.5805 22.6922 38.7339 22.5494 37.4854 23.2009C36.9685 23.448 36.4907 23.7688 36.0672 24.1534C31.6705 28.4868 27.3019 32.8491 22.9063 37.184C22.1844 37.8956 22.05 38.477 22.8373 39.2531C26.919 43.2717 30.9812 47.31 35.0238 51.3679C35.7692 52.115 36.353 52.1303 37.1045 51.377C41.5053 46.9583 45.9491 42.5842 50.3289 38.1421C50.9291 37.5342 51.245 36.6534 51.8953 35.5551H51.8928ZM34.5166 54.4189C29.4778 49.4116 24.8541 44.8155 20.1926 40.1842C20.0419 40.2252 19.9003 40.2942 19.7754 40.3875C17.3191 42.7892 14.8687 45.1968 12.4242 47.6103C8.45903 51.5376 8.48102 51.5239 12.7249 55.2016C13.5362 55.9056 14.0853 55.901 14.8107 55.1584C16.4559 53.4756 18.1374 51.8268 19.8209 50.1821C21.826 48.2258 24.1384 48.02 25.7002 49.6322C27.326 51.3094 27.1424 53.2408 25.1108 55.3165C23.4646 56.9983 21.803 58.6674 20.1047 60.2974C19.2867 61.0821 19.2667 61.7103 20.0914 62.5179C23.6614 66.0137 22.6353 65.5858 25.692 62.7136C26.0632 62.365 26.4078 61.9873 26.7779 61.6397C29.3776 59.2138 31.9763 56.7914 34.5192 54.4189H34.5166ZM65.0716 21.2066C65.0814 19.679 64.7855 18.1648 64.2013 16.7519C63.617 15.3391 62.756 14.0558 61.6683 12.9768C60.5807 11.8978 59.2881 11.0445 57.8657 10.4666C56.4433 9.88878 54.9196 9.59784 53.3831 9.61074C50.3142 9.64685 47.3821 10.8781 45.2164 13.04C43.0508 15.2019 41.8244 18.122 41.8008 21.173C41.8008 27.1851 47.6536 32.9736 53.6658 32.9035C56.7355 32.846 59.6577 31.5839 61.795 29.3926C63.9323 27.2013 65.1111 24.2586 65.0742 21.2066H65.0716ZM52.8805 39.4945L52.1648 39.2602C50.9332 40.7916 48.7394 42.2686 48.6469 43.8645C48.3504 49.0385 45.9025 53.0095 42.8146 56.7879C42.0089 57.7739 41.9256 58.516 42.9378 59.3378C43.3789 59.7031 43.7871 60.1059 44.1577 60.5418C44.9327 61.4409 45.5851 61.3286 46.335 60.4666C50.7767 55.3597 53.4766 49.5554 53.4874 42.7062C53.4894 41.6358 53.0942 40.5649 52.8831 39.4945H52.8805ZM35.2538 21.6792C33.7544 21.3687 32.7344 20.9722 31.7155 20.9763C24.7549 21.0048 18.8322 23.6777 13.7034 28.2235C13.5178 28.4031 13.3772 28.6235 13.293 28.867C13.2088 29.1105 13.1834 29.3702 13.2187 29.6253C14.2243 32.0293 16.2315 32.4776 18.3179 30.9137C21.3879 28.6123 24.5351 26.1625 28.5279 26.1427C31.8193 26.1259 33.0463 23.8678 35.2538 21.6792ZM9.55463 60.7609C10.2985 59.5086 11.7964 57.7622 11.4943 57.3627C9.98019 55.4187 8.21931 53.6777 6.25557 52.1831C5.05926 51.25 3.88392 52.3061 3.2556 53.3277C3.00304 53.7389 3.36705 54.8149 3.78882 55.2921C5.13135 56.8097 6.62622 58.1937 8.07764 59.6123C8.38694 59.9152 8.76322 60.1515 9.55463 60.7609ZM23.5438 69.8449C23.2515 69.2008 22.8944 68.5878 22.4779 68.0152C21.1803 66.6333 19.7821 65.3444 18.4779 63.9675C17.2468 62.6674 16.6185 63.8572 15.8705 64.5301C15.0929 65.232 14.3307 65.9197 15.4805 66.9957C16.958 68.3786 18.3179 69.8861 19.8143 71.2472C20.2999 71.6894 21.324 72.2464 21.6328 72.0436C22.4047 71.5395 22.9063 70.6282 23.5438 69.8449ZM33.0223 18.527C34.3868 19.1801 35.7012 20.0101 37.1368 20.4111C37.8525 20.6109 39.3233 20.249 39.5324 19.756C40.3601 17.8058 40.8238 15.7032 41.42 13.6656C39.1787 11.6397 36.2426 14.1962 33.0223 18.527ZM60.9633 33.3116C58.8871 33.8844 56.7813 34.3571 54.7772 35.0997C54.2956 35.2786 53.7547 36.4887 53.927 36.9975C54.5195 38.4973 55.2126 39.9559 56.0017 41.3634C60.3667 38.6839 62.2046 35.6613 60.9633 33.3116ZM46.1658 46.1654L37.9287 53.9981C38.9568 55.0486 40.2323 56.0514 41.398 54.8753C43.818 52.5041 45.4771 49.4732 46.1658 46.1654ZM28.1752 28.344C27.1194 28.6017 26.4022 28.6306 25.8413 28.9396C23.8827 29.9717 21.9785 31.1029 20.1364 32.3287C18.3317 33.58 18.4917 34.9121 20.3777 36.2702L28.1752 28.344ZM42.037 64.2074C42.264 64.0137 42.7834 63.5726 43.3029 63.1309L40.2523 60.1322C39.8883 60.6633 39.3014 61.1574 39.2058 61.7327C38.9916 63.0226 40.1649 64.1616 42.037 64.2074ZM12.8542 35.2206L14.1139 34.1177L11.0628 31.1114C10.708 31.6481 10.1308 32.1513 10.0434 32.7271C9.84399 34.045 10.9969 35.1774 12.8542 35.2206Z" fill="white"/>
<path fill-rule="evenodd" clip-rule="evenodd" d="M68.9121 73.1999C68.8323 72.3105 68.5031 71.4719 68.7761 71.1669C69.7474 70.0879 69.9453 69.2203 68.8042 68.1433C68.5741 67.9263 68.7796 67.2524 68.7848 66.7894C69.3011 66.7975 70.0271 66.5916 70.2965 66.8519C71.2735 67.7977 72.0347 67.8323 73.0362 66.8702C73.3369 66.5825 74.138 66.8097 74.7101 66.801C74.6365 67.3118 74.7453 67.9919 74.4544 68.3014C73.6227 69.1878 73.3957 69.8704 74.3594 70.8534C74.6973 71.1985 74.5378 72.0223 74.6058 72.6322C74.0383 72.5423 73.2735 72.6505 72.9407 72.3237C71.9918 71.3921 71.2536 71.4343 70.3962 72.3745C70.161 72.6327 69.7576 72.741 68.9121 73.1999Z" fill="white"/>
<path fill-rule="evenodd" clip-rule="evenodd" d="M75.7474 9.27755C74.9928 8.98937 74.6917 8.96395 74.5378 8.8008C73.5281 7.73346 72.5884 7.62876 71.4765 8.72863C71.2285 8.97411 70.478 8.71693 69.9591 8.69101C70.0036 8.22698 69.8681 7.58405 70.1237 7.32992C71.1288 6.32917 71.2387 5.49411 70.1585 4.45574C69.8819 4.18993 70.0496 3.4682 70.0128 2.95588C70.524 2.95588 71.2745 2.73733 71.5117 2.99146C72.5997 4.15587 73.4841 4.0288 74.5281 2.95181C74.7602 2.71242 75.4223 2.88523 75.8865 2.86846C75.8977 3.38027 76.1334 4.11825 75.8813 4.36628C74.7776 5.45445 74.8747 6.3256 75.8982 7.41225C76.162 7.68874 75.8292 8.51771 75.7474 9.27755Z" fill="white"/>
<path fill-rule="evenodd" clip-rule="evenodd" d="M11.4718 11.8728C11.9634 11.4395 12.5028 11.0628 13.0797 10.7501C13.2951 10.6603 13.5283 10.6208 13.7615 10.6345C13.9946 10.6482 14.2215 10.7149 14.4247 10.8294C14.5401 11.0262 14.6016 11.2496 14.6034 11.4774C14.6051 11.7052 14.5468 11.9295 14.4345 12.128C13.4166 13.1613 13.1645 14.0395 14.3711 15.1358C14.6374 15.3778 14.4375 16.1264 14.4524 16.6413C13.9411 16.6219 13.2305 16.8085 12.9605 16.5457C11.9662 15.58 11.1492 15.3259 10.0976 16.4771C9.84196 16.7587 9.11649 16.6174 8.60678 16.6707C8.60985 16.1478 8.39054 15.4184 8.65434 15.1389C9.62928 14.1036 9.70443 13.2695 8.65791 12.2306C8.40996 11.9831 8.65792 11.2416 8.67888 10.7272C9.14709 10.6922 9.61791 10.7329 10.073 10.8477C10.5771 11.1353 11.0464 11.4792 11.4718 11.8728Z" fill="white"/>
<path fill-rule="evenodd" clip-rule="evenodd" d="M3.65073 40.3162C3.06382 40.7564 2.72436 41.1909 2.33735 41.2382C2.08172 41.2692 1.46824 40.6613 1.51937 40.486C1.58819 40.2761 1.70133 40.0833 1.85122 39.9204C2.00111 39.7575 2.18429 39.6284 2.38847 39.5416C2.63029 39.4654 3.04133 39.9208 3.65073 40.3162Z" fill="white"/>
<path fill-rule="evenodd" clip-rule="evenodd" d="M3.58839 1.34961C4.0163 1.94833 4.4529 2.29851 4.47182 2.67106C4.48664 2.95466 3.97131 3.2647 3.69166 3.56305C3.35833 3.24742 2.87877 2.98161 2.74687 2.59737C2.67069 2.37373 3.15434 1.96155 3.58839 1.34961Z" fill="white"/>
<path fill-rule="evenodd" clip-rule="evenodd" d="M74.2879 54.4912C73.7296 54.9832 73.3952 55.4894 73.1417 55.4523C72.7516 55.3954 72.4172 54.9654 72.0588 54.6935C72.317 54.3743 72.5548 53.8188 72.838 53.7944C73.2132 53.7623 73.6243 54.1466 74.2879 54.4912Z" fill="white"/>
<path fill-rule="evenodd" clip-rule="evenodd" d="M23.1762 0C23.6246 0.568736 24.1082 0.932656 24.0515 1.16899C23.9823 1.37563 23.8699 1.56532 23.7216 1.72556C23.5733 1.88581 23.3924 2.01296 23.191 2.0986C23.0177 2.16467 22.3628 1.62287 22.373 1.3728C22.3858 0.989581 22.7856 0.620578 23.1762 0Z" fill="white"/>
<path fill-rule="evenodd" clip-rule="evenodd" d="M75.4739 20.8303C74.9595 21.242 74.6497 21.6847 74.3491 21.6781C74.0291 21.6704 73.7182 21.2399 73.4033 20.9939C73.6937 20.6636 73.9319 20.1843 74.2939 20.0593C74.5153 19.9841 74.9263 20.4542 75.4739 20.8303Z" fill="white"/>
<path fill-rule="evenodd" clip-rule="evenodd" d="M43.8872 5.52368C43.5497 5.72698 43.1806 6.1224 42.8826 6.07513C42.5733 6.02431 42.3325 5.54757 42.062 5.25634C42.3999 4.96765 42.7052 4.51226 43.0845 4.43703C43.4454 4.36486 43.8861 4.69117 44.2921 4.84365C44.1578 5.06999 44.0228 5.29666 43.8872 5.52368Z" fill="white"/>
<path fill-rule="evenodd" clip-rule="evenodd" d="M42.8422 71.5952C43.2476 72.1746 43.6669 72.5101 43.6454 72.815C43.6229 73.1352 43.1786 73.4249 42.9184 73.7299C42.6372 73.4473 42.1679 73.1886 42.1275 72.8755C42.0871 72.5624 42.4803 72.2011 42.8422 71.5952Z" fill="white"/>
<path fill-rule="evenodd" clip-rule="evenodd" d="M46.422 37.5172C46.087 38.0032 45.7234 38.4691 45.3331 38.9124C43.0504 41.2102 40.7165 43.4587 38.4614 45.7824C37.3689 46.9077 36.4824 46.8498 35.4165 45.7499C33.1598 43.4275 30.8633 41.1436 28.5269 38.8981C27.4815 37.8903 27.4441 37.0349 28.4968 36.0138C30.8674 33.7144 33.2002 31.378 35.5264 29.0324C36.4466 28.1033 37.305 27.9234 38.3004 28.9267C40.715 31.3617 43.1669 33.7607 45.578 36.1993C45.9037 36.6089 46.1865 37.0505 46.422 37.5172ZM43.421 37.442C43.2982 37.1904 43.1498 36.952 42.9783 36.7304C41.2303 34.9709 39.5064 33.1844 37.6762 31.5137C37.4229 31.3998 37.1447 31.3516 36.8676 31.3734C36.5904 31.3953 36.3234 31.4866 36.0913 31.6387C34.3965 33.1752 32.826 34.8463 31.1767 36.4346C30.3894 37.1924 30.508 37.8039 31.2427 38.5109C32.8004 40.0107 34.3418 41.5289 35.8439 43.0851C36.6373 43.908 37.2805 43.91 38.0749 43.0851C39.5724 41.5258 41.1393 40.0331 42.6572 38.4931C42.9386 38.1627 43.1939 37.8113 43.421 37.442Z" fill="white"/>
<path fill-rule="evenodd" clip-rule="evenodd" d="M53.6163 11.8903C54.8435 11.895 56.0577 12.14 57.1897 12.6112C58.3217 13.0825 59.3492 13.7707 60.2136 14.6367C61.0781 15.5028 61.7624 16.5296 62.2277 17.6585C62.693 18.7875 62.93 19.9965 62.9252 21.2165C62.9205 22.4365 62.6741 23.6437 62.2001 24.7691C61.7261 25.8944 61.0338 26.916 60.1627 27.7753C59.2916 28.6347 58.2587 29.3151 57.1231 29.7776C55.9875 30.2401 54.7714 30.4758 53.5442 30.4711C49.1674 30.4467 44.0468 25.3438 44.0862 21.049C44.1015 19.8239 44.3608 18.614 44.8491 17.4891C45.3373 16.3641 46.045 15.3465 46.931 14.4949C47.8171 13.6434 48.8641 12.9748 50.0115 12.5277C51.159 12.0807 52.3841 11.864 53.6163 11.8903ZM46.374 20.8081C46.2912 24.0574 50.2344 28.2607 53.4583 28.3598C55.3656 28.3978 57.2103 27.6834 58.5892 26.3728C59.968 25.0622 60.7686 23.262 60.8159 21.3661C60.8632 19.4702 60.1534 17.6328 58.8416 16.2559C57.5299 14.8789 55.723 14.0744 53.8162 14.0184C49.7462 13.9116 46.4737 16.8971 46.374 20.8081Z" fill="white"/>
<path fill-rule="evenodd" clip-rule="evenodd" d="M37.4072 33.5029C38.4711 34.7634 39.7651 35.9054 40.5069 37.3311C40.9072 38.1006 39.8193 38.6947 39.0427 38.1016C37.9973 37.2916 37.0641 36.3479 36.2672 35.295C36.0402 34.9987 36.4717 34.2069 36.5979 33.6427L37.4072 33.5029Z" fill="white"/>
<path fill-rule="evenodd" clip-rule="evenodd" d="M36.4624 41.3184C35.4011 40.0595 34.1137 38.9174 33.3724 37.4938C32.9834 36.7472 34.0555 36.1286 34.8428 36.734C35.8852 37.5463 36.8185 38.4881 37.6198 39.5365C37.8433 39.8267 37.421 40.6099 37.2947 41.1675L36.4624 41.3184Z" fill="white"/>
<path fill-rule="evenodd" clip-rule="evenodd" d="M52.0119 21.251C51.3185 21.3207 50.619 21.3062 49.9291 21.2078C49.4848 21.0939 49.1474 20.5699 48.7625 20.2299C49.1643 19.9001 49.5436 19.3252 49.9721 19.2866C51.3629 19.1626 52.7619 19.1585 54.1535 19.2744C54.5973 19.312 54.9986 19.8635 55.4194 20.1801C54.9817 20.5425 54.5947 21.0823 54.0942 21.2225C53.4053 21.3289 52.7053 21.3439 52.0124 21.2673L52.0119 21.251Z" fill="white"/>
<path fill-rule="evenodd" clip-rule="evenodd" d="M53.8447 25.9068C53.3421 25.923 52.8398 25.8669 52.3534 25.7401C52.1453 25.6955 51.9587 25.5818 51.8244 25.4176C51.6901 25.2535 51.6161 25.0487 51.6145 24.8371C51.613 24.6256 51.684 24.4197 51.8159 24.2537C51.9478 24.0876 52.1327 23.9712 52.3401 23.9236C52.8105 23.7326 53.3299 23.6959 53.8227 23.8189C54.6184 24.1061 55.394 24.4457 56.1443 24.8354L54.0752 26.2179C53.998 26.1162 53.9214 26.011 53.8447 25.9068Z" fill="white"/>
</g>
</g>
<defs>
<clipPath id="clip0_182_1650">
<rect width="76" height="75" fill="white"/>
</clipPath>
</defs>
</svg>
