<svg width="83" height="83" viewBox="0 0 83 83" fill="none" xmlns="http://www.w3.org/2000/svg">
<g clip-path="url(#clip0_182_1615)">
<g opacity="0.85">
<path fill-rule="evenodd" clip-rule="evenodd" d="M45.0665 82.9999C46.3343 82.7795 47.6006 82.546 48.8707 82.3426C50.0225 82.1583 51.103 81.8304 50.9002 80.3767C50.6914 78.877 49.5088 78.9277 48.3938 79.1289C42.1525 80.2721 35.7247 79.8403 29.6924 77.8726C5.16335 70.0093 -4.68269 40.0505 10.392 19.1935C10.4893 18.9975 10.6246 18.8228 10.7901 18.6796C10.9556 18.5364 11.1479 18.4275 11.3558 18.3593C11.5637 18.291 11.7831 18.2648 12.0013 18.2821C12.2194 18.2995 12.432 18.36 12.6266 18.4602C14.1028 18.9453 15.7023 18.8971 17.1467 18.324C18.591 17.7509 19.7885 16.6893 20.5305 15.3241C21.0976 14.3206 21.4 13.1893 21.4092 12.0367C21.4184 10.8841 21.1341 9.74815 20.5831 8.73574C20.0321 7.72333 19.2326 6.86779 18.2597 6.24967C17.2868 5.63155 16.1727 5.27119 15.0221 5.2025C13.8715 5.13382 12.7224 5.35906 11.6829 5.85705C10.6434 6.35504 9.74766 7.10939 9.08014 8.04906C8.41263 8.98873 7.99526 10.0828 7.86727 11.2283C7.73929 12.3738 7.9049 13.5331 8.34857 14.5969C8.55557 14.929 8.65368 15.3175 8.62917 15.708C8.60467 16.0986 8.45879 16.4718 8.2119 16.7754C3.77525 22.6738 1.02971 29.6696 0.270293 37.0111C0.208436 37.3259 0.117968 37.6343 0 37.9326V45.0648C0.124258 45.4735 0.222956 45.8895 0.295602 46.3104C1.23457 54.4978 4.59988 62.2175 9.95922 68.4779C15.3186 74.7383 22.4272 79.2534 30.372 81.4434C32.8485 82.1222 35.4109 82.4877 37.9335 82.9991L45.0665 82.9999ZM14.6024 15.5545C13.9027 15.5556 13.2182 15.3502 12.6347 14.964C12.0513 14.5778 11.5948 14.0279 11.3225 13.3834C11.0503 12.7388 10.9744 12.0282 11.1044 11.3407C11.2343 10.6531 11.5643 10.0193 12.053 9.51849C12.5417 9.01773 13.1673 8.67237 13.8515 8.52572C14.5357 8.37906 15.2479 8.43764 15.8989 8.69409C16.5499 8.95054 17.1107 9.39347 17.5111 9.96733C17.9114 10.5412 18.1334 11.2205 18.1493 11.92C18.1569 12.392 18.071 12.8608 17.8965 13.2995C17.722 13.7381 17.4625 14.1378 17.1327 14.4757C16.803 14.8135 16.4096 15.0826 15.9753 15.2677C15.541 15.4527 15.0744 15.5499 14.6024 15.5537V15.5545Z" fill="white"/>
<path fill-rule="evenodd" clip-rule="evenodd" d="M37.9335 0C36.665 0.220387 35.3995 0.452302 34.1278 0.656563C32.9238 0.850074 31.765 1.17795 32.0545 2.72988C32.3286 4.21346 33.5481 4.06679 34.64 3.87097C41.8505 2.5301 49.2954 3.31943 56.0644 6.14243C61.3834 8.33863 66.139 11.7055 69.9776 15.9928C73.8161 20.28 76.639 25.3774 78.2362 30.9058C79.8334 36.4343 80.164 42.2517 79.2033 47.9255C78.2426 53.5993 76.0154 58.9836 72.6872 63.6781C72.0659 64.5512 71.5921 64.9759 70.3604 64.5543C68.8873 64.0563 67.2852 64.0979 65.8398 64.6716C64.3945 65.2453 63.2 66.3138 62.4695 67.6865C61.7189 69.0286 61.4457 70.5855 61.6945 72.1029C61.9433 73.6203 62.6994 75.0085 63.8392 76.0405C64.9791 77.0726 66.4353 77.6876 67.9699 77.7849C69.5045 77.8823 71.0267 77.4563 72.2878 76.5765C73.5695 75.7003 74.506 74.405 74.9363 72.9133C75.3667 71.4216 75.264 69.8265 74.646 68.4022C74.44 68.0699 74.3433 67.6814 74.3693 67.2912C74.3953 66.901 74.5428 66.5288 74.7912 66.2268C79.2263 60.3287 81.9717 53.3343 82.7328 45.9941C82.7945 45.6796 82.8842 45.3712 83.0008 45.0727V37.9404C82.8733 37.4799 82.7708 37.0128 82.6937 36.5413C81.6924 28.2232 78.1953 20.4034 72.6629 14.1117C67.1304 7.82005 59.8222 3.35155 51.7004 1.29468C49.5165 0.757153 47.2781 0.430794 45.065 0.00691316L37.9335 0ZM68.5374 74.5531C67.8382 74.5791 67.1467 74.3983 66.5497 74.0332C65.9527 73.6682 65.4766 73.1352 65.1811 72.5009C64.8856 71.8666 64.7837 71.1593 64.8882 70.4674C64.9927 69.7755 65.299 69.1298 65.7687 68.6111C66.2385 68.0924 66.8507 67.7238 67.5289 67.5514C68.2071 67.379 68.921 67.4104 69.5814 67.6418C70.2418 67.8732 70.8193 68.2943 71.2416 68.8523C71.6638 69.4103 71.9121 70.0805 71.9553 70.7789C71.9809 71.2516 71.9125 71.7247 71.7542 72.1709C71.5959 72.617 71.3507 73.0274 71.033 73.3783C70.7152 73.7292 70.3311 74.0137 69.9027 74.2153C69.4744 74.417 69.0104 74.5318 68.5374 74.5531Z" fill="white"/>
<path fill-rule="evenodd" clip-rule="evenodd" d="M54.5762 19.1843C52.4806 18.3519 50.6676 17.6731 48.8999 16.8929C48.7228 16.7708 48.5732 16.613 48.4606 16.4297C48.3479 16.2465 48.2747 16.0418 48.2456 15.8286C48.1358 15.1429 48.2456 14.4257 48.1911 13.7276C48.2028 13.4954 48.1652 13.2633 48.0806 13.0466C47.996 12.83 47.8664 12.6338 47.7003 12.471C47.5342 12.3082 47.3355 12.1825 47.1172 12.1022C46.8989 12.0219 46.6661 11.9889 46.4341 12.0052C43.1391 11.9922 39.8432 11.9761 36.5474 12.0129C35.1245 12.0291 34.6438 13.0419 34.8174 14.2276C35.1061 16.2018 34.3382 17.1287 32.4246 17.5641C31.0457 18.0155 29.7095 18.5881 28.4315 19.275C27.8939 18.6345 27.3326 17.902 26.7006 17.24C25.8283 16.3262 24.916 16.37 24.026 17.2615C21.8122 19.4792 19.6029 21.7015 17.3706 23.9C16.3547 24.8983 16.3355 25.8681 17.3791 26.818C18.0164 27.3986 18.7129 27.9146 19.2297 28.3354C18.3666 30.507 17.6863 32.3185 16.9061 34.0862C16.7844 34.263 16.6271 34.4125 16.4444 34.5252C16.2617 34.6378 16.0575 34.7111 15.8448 34.7404C15.1591 34.8487 14.4426 34.7405 13.7431 34.7911C13.511 34.7773 13.2787 34.8129 13.0615 34.8956C12.8442 34.9783 12.647 35.1062 12.483 35.2709C12.3189 35.4356 12.1916 35.6332 12.1097 35.8507C12.0278 36.0683 11.993 36.3007 12.0076 36.5327C11.9892 39.8286 11.98 43.1244 12.0076 46.4194C12.0207 47.8462 13.0274 48.3392 14.21 48.1641C16.1804 47.8723 17.1173 48.6249 17.5657 50.5346C18.0271 51.9242 18.6056 53.2721 19.295 54.5638C18.6691 55.0837 17.9312 55.6389 17.2655 56.2639C17.054 56.4163 16.8812 56.6163 16.7612 56.8476C16.6411 57.079 16.577 57.3353 16.5741 57.596C16.5711 57.8566 16.6295 58.1143 16.7444 58.3483C16.8593 58.5823 17.0275 58.786 17.2355 58.9431C19.488 61.1997 21.7405 63.4548 23.993 65.7083C24.956 66.6751 26.0126 66.6874 26.7667 65.6277C28.0683 63.7963 29.485 63.6926 31.1951 64.9366C31.3704 65.0647 31.5709 65.1542 31.7833 65.1992C33.988 65.6308 35.298 66.6167 34.8488 69.2038C34.643 70.3864 35.5622 71.0161 36.8131 71.0091C39.8924 70.9915 42.9725 70.9792 46.0517 71.0145C47.5729 71.0322 48.2256 70.2965 48.211 68.8421C48.2296 68.5723 48.2279 68.3015 48.2057 68.032C47.9815 66.6836 48.4837 65.8988 49.8835 65.7091C50.2562 65.6392 50.6122 65.499 50.9325 65.296C52.9989 64.1011 54.9187 63.4169 56.6272 65.9663C57.1747 66.7841 58.1922 66.5039 58.9025 65.7989C61.1985 63.5106 63.4905 61.2184 65.7783 58.9224C65.9858 58.7644 66.1528 58.5593 66.2655 58.3241C66.3782 58.0889 66.4334 57.8302 66.4266 57.5695C66.4198 57.3088 66.3511 57.0534 66.2263 56.8244C66.1014 56.5954 65.9239 56.3994 65.7084 56.2524C65.035 55.6342 64.2862 55.1006 63.751 54.6705C64.6195 52.4912 65.2745 50.7251 66.0447 49.0103C66.3092 48.6106 66.7216 48.3322 67.1912 48.2363C67.7801 48.1622 68.375 48.1488 68.9666 48.1964C70.3489 48.168 71.0284 47.5099 71.0115 46.0754C70.9762 43.0507 71.0115 40.0244 70.9954 36.9988C70.9847 35.3225 70.4356 34.6391 68.7485 34.8226C66.752 35.0392 65.7307 34.3411 65.4596 32.3984C65.4182 32.1296 65.3172 31.8735 65.164 31.6489C63.8678 29.7407 63.6013 28.0536 65.8351 26.5339C66.719 25.9326 66.603 24.9152 65.8252 24.1304C63.503 21.7924 61.1719 19.4631 58.8318 17.1425C58.6852 16.9611 58.4998 16.8148 58.2892 16.7145C58.0785 16.6141 57.8481 16.5623 57.6148 16.5627C57.3815 16.5632 57.1513 16.6159 56.941 16.717C56.7308 16.8181 56.5459 16.9651 56.3999 17.1471C55.7149 17.8275 55.106 18.5877 54.5762 19.1843ZM44.9122 15.3187C44.9375 15.8839 44.9644 16.2579 44.969 16.6311C45.0028 19.2158 45.0127 19.1805 47.5107 19.9461C48.8208 20.2631 50.0826 20.7538 51.2627 21.4051C53.6432 22.9278 55.7664 23.6489 57.3291 20.6887L62.226 25.5879C61.9518 25.9213 61.6508 26.2318 61.326 26.5162C59.8916 27.6297 59.9054 28.7992 60.8376 30.3012C61.6352 31.6455 62.2855 33.0718 62.7773 34.5554C63.9292 37.8289 63.8854 37.8436 67.3363 38.0632C67.4308 38.0685 67.5199 38.1569 67.6842 38.2452V44.8821C67.1361 44.9427 66.5844 44.9642 66.0333 44.9466C64.3293 44.7692 63.4899 45.4841 63.1091 47.1843C62.729 48.7007 62.1817 50.1703 61.4773 51.5659C59.9338 54.8095 59.8923 54.7911 62.2383 57.3935C62.2966 57.458 62.2843 57.587 62.2429 57.3897L57.5134 62.3042C57.2001 62.0117 56.8407 61.6899 56.4997 61.3566C54.8173 59.7026 54.7781 59.7694 52.6042 60.8798C50.9765 61.7105 49.2851 62.41 47.5461 62.9715C45.065 63.7724 45.0074 63.7394 44.9682 66.2881C44.9605 66.7542 44.9037 67.2195 44.8722 67.648H38.0279C38.0031 67.135 38.0059 66.6211 38.0364 66.1084C38.2383 64.3476 37.5418 63.4269 35.7327 63.0767C34.3507 62.8213 33.0249 62.3235 31.8164 61.6062C29.4159 60.1265 27.2366 59.2672 25.6294 62.2866L20.6849 57.2514C20.9153 57.061 21.2739 56.7346 21.6601 56.4413C23.0999 55.3478 23.1276 54.1791 22.1631 52.6694C21.2991 51.4278 20.6772 50.0342 20.3301 48.5619C19.8249 45.8151 18.564 44.4191 15.6621 44.9044C15.5791 44.919 15.4762 44.8153 15.3726 44.7616V38.0133C15.8855 38.0133 16.2603 38.0133 16.6335 38.0133C19.2321 37.9864 19.1898 37.9725 19.9562 35.483C20.3754 34.0903 20.8959 32.73 21.5135 31.4132C23.0554 28.188 23.09 28.2049 20.7817 25.5771C20.7248 25.5126 20.7456 25.3805 20.7678 25.5264L25.5373 20.6956C25.8841 20.9841 26.2088 21.2983 26.5087 21.6355C27.6114 23.04 28.7739 23.1314 30.2875 22.1615C31.4799 21.3209 32.822 20.7157 34.2414 20.3784C37.0873 19.8647 38.5862 18.557 38.1124 15.5253C38.1062 15.49 38.1754 15.4424 38.2752 15.321L44.9122 15.3187Z" fill="white"/>
<path fill-rule="evenodd" clip-rule="evenodd" d="M56.4422 80.7662C57.1571 79.718 57.978 79.0231 57.8705 78.5454C57.723 77.9096 56.8492 77.4412 56.2863 76.9014C55.7849 77.4903 54.9716 78.0379 54.8826 78.6844C54.8142 79.1736 55.6697 79.791 56.4422 80.7662Z" fill="white"/>
<path fill-rule="evenodd" clip-rule="evenodd" d="M26.1954 2.69297C25.7884 3.28886 24.9721 3.97305 25.0765 4.45913C25.2124 5.09495 26.0748 5.57337 26.6284 6.12011C27.1468 5.5918 28.0499 5.08268 28.0767 4.53056C28.1067 3.92545 27.3273 3.28041 26.9011 2.65381L26.1954 2.69297Z" fill="white"/>
<path fill-rule="evenodd" clip-rule="evenodd" d="M41.4582 28.1465C38.8188 28.155 36.2411 28.9455 34.0506 30.4181C31.8602 31.8907 30.1553 33.9794 29.1513 36.4204C28.1473 38.8614 27.8891 41.5452 28.4095 44.1328C28.9298 46.7205 30.2054 49.0959 32.0749 50.959C33.9445 52.8221 36.3243 54.0895 38.9137 54.6009C41.5031 55.1123 44.1859 54.8449 46.6234 53.8325C49.061 52.8201 51.1438 51.108 52.6089 48.9125C54.074 46.717 54.8556 44.1366 54.855 41.4972C54.8638 39.7376 54.5229 37.9938 53.8522 36.367C53.1815 34.7402 52.1943 33.2629 50.9479 32.0208C49.7016 30.7787 48.2208 29.7966 46.5918 29.1315C44.9627 28.4664 43.2177 28.1316 41.4582 28.1465ZM41.4497 51.6104C39.4536 51.6 37.5052 50.9989 35.8502 49.8829C34.1951 48.7669 32.9074 47.1861 32.1494 45.3395C31.3913 43.4929 31.1967 41.4632 31.5903 39.5062C31.9838 37.5492 32.9478 35.7526 34.3608 34.3426C35.7738 32.9326 37.5726 31.9724 39.5304 31.5829C41.4882 31.1935 43.5174 31.3924 45.3624 32.1543C47.2074 32.9163 48.7855 34.2074 49.898 35.8648C51.0104 37.5222 51.6074 39.4719 51.6137 41.468C51.6271 42.8054 51.3732 44.132 50.8669 45.3699C50.3606 46.6079 49.6122 47.7322 48.6655 48.677C47.7188 49.6218 46.5929 50.3679 45.354 50.8717C44.115 51.3754 42.7871 51.6265 41.4497 51.6104Z" fill="white"/>
</g>
</g>
<defs>
<clipPath id="clip0_182_1615">
<rect width="83" height="83" fill="white"/>
</clipPath>
</defs>
</svg>
