<svg width="37" height="37" viewBox="0 0 37 37" fill="none" xmlns="http://www.w3.org/2000/svg">
<g clip-path="url(#clip0_175_1633)">
<path d="M4.6875 8.19531C4.06875 8.19531 3.5625 8.70156 3.5625 9.32031V10.8742L15.6914 20.8305C17.1469 22.0258 19.2352 22.0258 20.6906 20.8305L32.8125 10.8742V9.32031C32.8125 8.70156 32.3063 8.19531 31.6875 8.19531H4.6875ZM3.5625 15.2406V27.3203C3.5625 27.9391 4.06875 28.4453 4.6875 28.4453H31.6875C32.3063 28.4453 32.8125 27.9391 32.8125 27.3203V15.2406L22.8281 23.4391C20.1281 25.6539 16.2398 25.6539 13.5469 23.4391L3.5625 15.2406ZM0.1875 9.32031C0.1875 6.83828 2.20547 4.82031 4.6875 4.82031H31.6875C34.1695 4.82031 36.1875 6.83828 36.1875 9.32031V27.3203C36.1875 29.8023 34.1695 31.8203 31.6875 31.8203H4.6875C2.20547 31.8203 0.1875 29.8023 0.1875 27.3203V9.32031Z" fill="white"/>
</g>
<defs>
<clipPath id="clip0_175_1633">
<rect width="36" height="36" fill="white" transform="translate(0.1875 0.320312)"/>
</clipPath>
</defs>
</svg>
