<svg width="36" height="37" viewBox="0 0 36 37" fill="none" xmlns="http://www.w3.org/2000/svg">
<path d="M6 12.8125C6 11.2212 6.63214 9.69508 7.75736 8.56986C8.88258 7.44464 10.4087 6.8125 12 6.8125H24C25.5913 6.8125 27.1174 7.44464 28.2426 8.56986C29.3679 9.69508 30 11.2212 30 12.8125V24.8125C30 26.4038 29.3679 27.9299 28.2426 29.0551C27.1174 30.1804 25.5913 30.8125 24 30.8125H12C10.4087 30.8125 8.88258 30.1804 7.75736 29.0551C6.63214 27.9299 6 26.4038 6 24.8125V12.8125Z" stroke="white" stroke-width="2" stroke-linecap="round" stroke-linejoin="round"/>
<path d="M24.75 12.0625V12.0775M13.5 18.8125C13.5 20.006 13.9741 21.1506 14.818 21.9945C15.6619 22.8384 16.8065 23.3125 18 23.3125C19.1935 23.3125 20.3381 22.8384 21.182 21.9945C22.0259 21.1506 22.5 20.006 22.5 18.8125C22.5 17.619 22.0259 16.4744 21.182 15.6305C20.3381 14.7866 19.1935 14.3125 18 14.3125C16.8065 14.3125 15.6619 14.7866 14.818 15.6305C13.9741 16.4744 13.5 17.619 13.5 18.8125Z" stroke="white" stroke-width="2" stroke-linecap="round" stroke-linejoin="round"/>
</svg>
