<svg width="37" height="37" viewBox="0 0 37 37" fill="none" xmlns="http://www.w3.org/2000/svg">
<path d="M12.5938 17.3125V24.8125M12.5938 12.8125V12.8275M18.5938 24.8125V17.3125M6.59375 9.8125C6.59375 9.01685 6.90982 8.25379 7.47243 7.69118C8.03504 7.12857 8.7981 6.8125 9.59375 6.8125H27.5938C28.3894 6.8125 29.1525 7.12857 29.7151 7.69118C30.2777 8.25379 30.5938 9.01685 30.5938 9.8125V27.8125C30.5938 28.6081 30.2777 29.3712 29.7151 29.9338C29.1525 30.4964 28.3894 30.8125 27.5938 30.8125H9.59375C8.7981 30.8125 8.03504 30.4964 7.47243 29.9338C6.90982 29.3712 6.59375 28.6081 6.59375 27.8125V9.8125Z" stroke="white" stroke-width="2" stroke-linecap="round" stroke-linejoin="round"/>
<path d="M24.5938 24.8125V20.3125C24.5938 19.5169 24.2777 18.7538 23.7151 18.1912C23.1525 17.6286 22.3894 17.3125 21.5938 17.3125C20.7981 17.3125 20.035 17.6286 19.4724 18.1912C18.9098 18.7538 18.5938 19.5169 18.5938 20.3125" stroke="white" stroke-width="2" stroke-linecap="round" stroke-linejoin="round"/>
</svg>
