<svg width="53" height="53" viewBox="0 0 53 53" fill="none" xmlns="http://www.w3.org/2000/svg">
<g clip-path="url(#clip0_182_1630)">
<path opacity="0.8" fill-rule="evenodd" clip-rule="evenodd" d="M40.9803 31.2207C41.0191 31.1486 41.0459 31.0707 41.0597 30.99C40.9327 26.6841 43.8337 24.399 46.8631 22.1403C48.4345 20.9469 49.7229 19.4212 50.6363 17.6723C50.9877 17.1342 51.1932 16.514 51.2327 15.8726C51.2722 15.2312 51.1444 14.5905 50.8618 14.0134C50.5792 13.4362 50.1515 12.9424 49.6206 12.5803C49.0897 12.2182 48.4738 12.0002 47.8333 11.9478C44.3476 11.3758 40.9896 12.1656 37.6959 13.189C37.1307 13.3875 36.5267 13.4495 35.933 13.3701C35.3392 13.2906 34.7727 13.072 34.2796 12.7319C32.0365 11.3169 29.4693 10.4981 26.8211 10.3528C24.173 10.2076 21.5316 10.7408 19.1472 11.902C16.7628 13.0631 14.7143 14.8137 13.1957 16.9881C11.6771 19.1624 10.7387 21.6884 10.4695 24.3268C10.4354 24.9252 10.2608 25.5071 9.95993 26.0255C9.65907 26.5438 9.24037 26.9841 8.73772 27.3105C5.94403 29.0395 3.56454 31.3614 1.76769 34.1118C-0.0386231 37.1831 1.26112 39.8464 4.78461 40.3362C7.97549 40.6224 11.1903 40.2047 14.2021 39.1125C14.8395 38.8831 15.5219 38.8067 16.1942 38.8896C16.8666 38.9725 17.51 39.2123 18.0726 39.5897C20.075 40.8025 22.3243 41.5501 24.6543 41.7773C26.9844 42.0044 29.3357 41.7053 31.5346 40.9019C33.7335 40.0986 35.7239 38.8116 37.3588 37.1359C38.9937 35.4603 40.2313 33.4388 40.9803 31.2207ZM30.7163 15.2204C32.2603 15.8814 33.6457 16.8641 34.7799 18.1029C35.9141 19.3416 36.7711 20.808 37.2938 22.4042C37.4215 22.6257 37.4993 22.8724 37.5221 23.1271C37.5448 23.3818 37.5118 23.6383 37.4254 23.879C37.339 24.1196 37.2013 24.3386 37.0218 24.5207C36.8423 24.7028 36.6253 24.8436 36.386 24.9334C30.7778 28.328 24.8743 31.2088 18.7477 33.5409C17.4563 34.0322 16.8825 33.6316 16.2204 32.6273C14.8696 30.5566 14.1935 28.1182 14.2849 25.6475C14.3764 23.1768 15.231 20.7951 16.7312 18.8299C19.7987 14.891 25.2418 13.3047 30.7163 15.2204ZM37.2837 29.0129C36.199 36.0026 26.8574 40.0804 21.5387 36.6986C26.9687 34.5271 32.2313 31.9582 37.2837 29.0129ZM46.9 15.8717C46.4152 17.0985 45.5976 18.1657 44.5392 18.953C41.3762 21.9622 41.293 21.9304 39.5061 17.9053C39.4678 17.8336 39.4239 17.765 39.3746 17.7004C39.0259 17.1773 39.0667 16.8286 39.764 16.671C42.0417 16.1714 44.2957 15.452 46.9 15.8717ZM5.25924 36.3654C5.70053 35.1329 6.50441 34.0629 7.5652 33.2959C10.7612 30.2399 10.8012 30.2621 12.6067 34.264C12.6422 34.3376 12.6841 34.408 12.7321 34.4742C13.2263 35.1891 12.9054 35.4054 12.1741 35.5756C9.94094 36.2815 7.5924 36.5491 5.25768 36.3638L5.25924 36.3654Z" fill="white"/>
</g>
<defs>
<clipPath id="clip0_182_1630">
<rect width="52.19" height="52.192" fill="white"/>
</clipPath>
</defs>
</svg>
