<svg width="113" height="120" viewBox="0 0 113 120" fill="none" xmlns="http://www.w3.org/2000/svg">
<g clip-path="url(#clip0_183_1660)">
<g opacity="0.75">
<path d="M70.8028 19.4316C69.6901 19.2828 68.5586 19.3605 67.4764 19.6601C66.3943 19.9597 65.3837 20.475 64.5055 21.175C61.7832 23.5201 60.9604 27.9424 62.7185 30.8595C63.4789 32.1736 63.4739 32.2885 62.5919 34.5074L61.6697 36.8273L54.1069 33.8247C47.2132 31.0877 46.3826 30.8356 44.9658 30.9739C43.1949 31.1262 41.2545 32.3809 40.7197 33.7262C40.3722 34.6005 40.3384 34.587 38.053 33.6797C36.5068 33.0658 35.566 32.8869 35.1766 33.083C34.7872 33.2791 33.6311 35.8953 31.306 41.9403L28.0124 50.5204L30.4692 51.6905C32.8565 52.8329 32.8897 52.8461 32.6907 53.9347C32.5438 54.6784 32.5467 55.4439 32.6994 56.1863C32.8521 56.9287 33.1514 57.6331 33.5798 58.2582C34.3953 59.6327 34.5837 59.7467 39.216 61.7027L43.9692 63.7453L42.6721 67.0084L35.1024 64.1199C26.6586 60.8845 26.5451 60.8779 23.875 62.6991C22.6585 63.4985 22.6184 63.5995 17.8081 75.7013C13.1439 87.4356 12.9773 87.9533 13.4487 88.5296C14.1688 89.3608 66.8728 110.286 67.9697 110.176C68.7084 110.08 68.9427 109.589 73.6069 97.8548C78.4182 85.7506 78.4583 85.6496 78.1607 84.2469C77.4354 81.0783 77.3489 81.0019 68.9857 77.5675L61.4962 74.4771L62.7933 71.2139L67.687 73.0015C71.9964 74.5955 72.7284 74.8084 73.7894 74.4897C75.344 74.1376 76.7162 73.2283 77.6467 71.9337L78.3363 70.8838L80.8904 71.7032L83.4808 72.5371L86.9763 64.037C89.4356 58.0454 90.3904 55.3493 90.2424 54.9398C90.0945 54.5303 89.2866 54.015 87.7743 53.4146L85.5221 52.5204L85.7747 51.2969C85.9691 50.4849 85.9621 49.6379 85.7543 48.8294C85.5466 48.021 85.1443 47.2757 84.5826 46.6585C83.6666 45.6333 82.8195 45.2186 75.9627 42.4963L68.3944 39.4914L69.3165 37.1715C70.1975 34.9551 70.2724 34.8651 71.7291 34.4312C75.2335 33.448 77.757 29.1557 76.9698 25.4564C76.6393 23.9609 75.8799 22.5945 74.7846 21.5244C73.6893 20.4544 72.3055 19.7271 70.8028 19.4316ZM73.6334 24.0591C75.8627 26.9686 73.7773 31.8242 70.1574 32.2161C69.2739 32.3296 68.3763 32.2118 67.5524 31.8741C66.7284 31.5364 66.0065 30.9904 65.4572 30.2896C64.9079 29.5888 64.5501 28.7573 64.4189 27.8764C64.2877 26.9956 64.3875 26.0956 64.7086 25.2647C65.8446 22.4067 68.4887 21.2373 71.312 22.3583C72.2191 22.7165 73.0185 23.3022 73.6334 24.0591ZM66.5047 36.4123C65.7965 38.1941 65.6356 38.4033 65.0306 38.1631C64.4255 37.9228 64.4519 37.661 65.1604 35.8786C65.8689 34.0962 66.0295 33.8877 66.6345 34.1279C67.2396 34.3681 67.214 34.6296 66.5058 36.4113L66.5047 36.4123ZM83.0887 49.0308L83.608 50.1715L75.214 71.2894L74.0191 71.7495L72.8243 72.2097L35.9845 57.5834L35.4313 56.4292L34.8781 55.2751L43.2722 34.1572L44.4332 33.6836L45.5742 33.1636L82.6158 47.87L83.0887 49.0308ZM36.6693 43.7174L34.0901 50.4014L31.0661 49.2008L36.4256 35.7174L37.8307 36.3922L39.2025 37.0537L36.6693 43.7174ZM84.8291 62.7604L82.1563 69.4849L79.131 68.2838L81.7104 61.7945C83.1403 58.1971 84.4441 55.2111 84.6184 55.1634C85.1753 55.1548 85.726 55.28 86.2242 55.5286L87.5014 56.0357L84.8291 62.7604ZM59.4569 71.762L58.7888 73.4428L45.3429 68.1044L46.6793 64.7422L60.1246 70.0803L59.4569 71.762ZM75.3155 83.8586L75.9028 85.2209L67.0421 107.513L62.4769 105.584L57.8785 103.641L60.0493 97.6902L62.2201 91.7394L46.4629 85.3672C31.9351 79.5216 30.6447 79.0477 30.0609 79.439C29.5984 79.7223 28.7551 81.4511 27.2182 85.3176L25.0402 90.7972L15.9644 87.1939L24.811 64.9376L26.1736 64.3495L27.5362 63.7613L74.7295 82.4982L75.3155 83.8586ZM57.2286 97.9325L55.2908 102.807L41.4684 97.2419L27.6263 91.6293L29.4364 86.7814L31.2333 81.9667L59.1659 93.0567L57.2286 97.9325Z" fill="white" fill-opacity="0.93"/>
<path d="M48.3793 40.1102C46.9207 40.4193 45.6324 41.2682 44.7728 42.4868C43.9131 43.7053 43.5455 45.2035 43.7436 46.681C44.0145 48.1508 45.8137 50.3834 47.1247 50.9039C48.4357 51.4244 51.2773 51.0343 52.4836 50.151C53.2922 49.4687 53.9125 48.5907 54.2856 47.6007C54.6586 46.6108 54.7718 45.5419 54.6145 44.4961C54.3041 43.1218 53.4943 41.9122 52.3422 41.1018C51.1901 40.2914 49.7778 39.938 48.3793 40.1102ZM51.8676 44.2587C52.163 44.9095 52.2344 45.6399 52.0705 46.3358C51.9065 47.0317 51.5166 47.6538 50.9617 48.1047C50.3944 48.4974 49.7093 48.6828 49.0216 48.6296C48.3339 48.5764 47.6858 48.2878 47.1862 47.8126C46.1427 46.8145 45.9998 45.9009 46.6278 44.3211C46.9331 43.6421 47.4897 43.1077 48.1805 42.8303C48.8714 42.553 49.6428 42.5542 50.3325 42.8338C50.9713 43.1509 51.5043 43.6468 51.8666 44.2612L51.8676 44.2587Z" fill="white" fill-opacity="0.93"/>
<path d="M70.855 48.9609C69.8502 49.0409 68.8902 49.4118 68.0924 50.0282C67.2945 50.6446 66.6932 51.4798 66.3618 52.4319C65.9259 53.37 65.7887 54.4192 65.9685 55.4375C66.1484 56.4558 66.6368 57.3941 67.3675 58.1254C68.768 59.6936 69.6753 60.0538 71.778 59.9541C72.8147 59.9111 73.8143 59.555 74.6451 58.9328C75.4759 58.3106 76.099 57.4515 76.4322 56.4686C76.8157 55.5985 76.9618 54.6425 76.8558 53.6979C76.7498 52.7533 76.3954 51.8537 75.8286 51.0908C75.2619 50.328 74.5031 49.729 73.6295 49.3548C72.7558 48.9807 71.7985 48.8448 70.855 48.9609ZM74.0474 53.0704C74.3428 53.7212 74.4142 54.4516 74.2503 55.1475C74.0864 55.8434 73.6964 56.4655 73.1415 56.9164C72.5742 57.3091 71.8891 57.4945 71.2014 57.4413C70.5138 57.388 69.8656 57.0995 69.366 56.6242C68.3225 55.6261 68.1796 54.7126 68.8076 53.1328C69.1129 52.4538 69.6695 51.9194 70.3604 51.642C71.0512 51.3646 71.8226 51.3659 72.5123 51.6454C73.1509 51.9616 73.6841 52.4563 74.047 53.0695L74.0474 53.0704Z" fill="white" fill-opacity="0.93"/>
<path d="M48.8148 56.4428C48.4697 56.6675 48.2211 57.0132 48.1183 57.412C47.9922 58.0232 48.5498 58.2838 55.8784 61.1937C63.2069 64.1036 63.7896 64.2958 64.1194 63.7654C65.0093 62.4084 64.4785 62.0786 56.7468 59.0087C50.763 56.6327 49.3111 56.1731 48.8148 56.4428Z" fill="white" fill-opacity="0.93"/>
<path d="M28.0023 66.5159C27.3768 66.5529 26.778 66.7827 26.2882 67.1736C25.7983 67.5646 25.4415 68.0976 25.2666 68.6994C25.0207 69.5234 25.0798 70.4082 25.433 71.1918C25.7862 71.9755 26.4099 72.6055 27.1899 72.9666C30.5173 74.2876 33.3573 70.2764 30.9267 67.6783C29.8361 66.5047 29.4329 66.3447 28.0023 66.5159ZM29.2107 69.4477C29.2906 69.5943 29.3249 69.7615 29.3094 69.9277C29.2938 70.094 29.229 70.2519 29.1233 70.3812C29.0176 70.5106 28.8757 70.6055 28.7159 70.6538C28.556 70.7022 28.3854 70.7018 28.2258 70.6527C28.0838 70.6013 27.9577 70.5135 27.8601 70.3983C27.7625 70.283 27.6967 70.1442 27.6694 69.9957C27.642 69.8471 27.6539 69.6939 27.704 69.5514C27.7541 69.4088 27.8406 69.2818 27.9549 69.1829C28.3832 68.6915 28.6989 68.7776 29.2111 69.4486L29.2107 69.4477Z" fill="white" fill-opacity="0.93"/>
<path d="M69.3864 82.9106C68.6794 83.0538 68.0237 83.3843 67.4881 83.8677C66.9246 84.4173 66.5727 85.1477 66.4941 85.9307C66.4156 86.7138 66.6155 87.4992 67.0587 88.1492C67.5018 88.7991 68.16 89.272 68.9174 89.4846C69.6749 89.6973 70.4832 89.6362 71.2004 89.312C73.4217 88.3256 74.0278 85.9188 72.4455 84.123C72.1079 83.6464 71.6392 83.2781 71.0961 83.0628C70.5531 82.8476 69.9591 82.7947 69.3864 82.9106ZM70.6631 86.4541C70.6119 86.6201 70.5116 86.7667 70.3753 86.8744C70.239 86.9821 70.0732 87.0459 69.8999 87.0573C69.7266 87.0687 69.554 87.0273 69.4049 86.9384C69.2557 86.8495 69.1372 86.7173 69.0648 86.5595C68.9028 86.1837 69.0098 85.9146 69.4926 85.6786C70.2848 85.2525 70.8363 85.6276 70.6631 86.4541Z" fill="white" fill-opacity="0.93"/>
</g>
</g>
<defs>
<clipPath id="clip0_183_1660">
<rect width="74" height="95" fill="white" transform="translate(49.8967) rotate(31.6837)"/>
</clipPath>
</defs>
</svg>
