<svg width="77" height="77" viewBox="0 0 77 77" fill="none" xmlns="http://www.w3.org/2000/svg">
<g clip-path="url(#clip0_182_1669)">
<g opacity="0.83">
<path d="M6.641 6.67303C1.57234 11.7424 0 13.509 0 14.1169C0 15.3007 20.6618 35.9333 21.8164 35.9333C22.5906 35.8073 23.2892 35.395 23.7738 34.7781C24.8002 33.7196 24.9576 33.6549 26.3085 33.8477C29.9991 34.3289 29.9656 34.0399 26.6935 37.3448C23.5496 40.5528 23.1004 41.1948 23.1004 42.637C23.1004 43.5993 23.0684 43.6313 21.4988 43.6313C20.6547 43.584 19.8104 43.7201 19.0238 44.0303C18.2373 44.3404 17.5273 44.8172 16.9427 45.4279C15.7589 46.7113 15.4024 47.8017 15.4024 50.3023C15.3383 51.7304 15.6596 53.1495 16.3327 54.4107C16.6548 55.2118 17.0985 55.9585 17.6481 56.6244C18.2253 56.9774 16.1078 59.0309 15.1454 59.0309C14.6176 58.9994 14.0957 59.1562 13.6728 59.4735C13.2498 59.7908 12.9531 60.2479 12.8357 60.7634C12.6658 61.2481 12.6399 61.7716 12.7611 62.2706C12.8823 62.7697 13.1453 63.223 13.5185 63.5759C13.8916 63.9287 14.359 64.166 14.864 64.259C15.3691 64.3521 15.8903 64.297 16.3647 64.1003C16.8547 63.9768 17.2848 63.6832 17.5783 63.2718C17.8717 62.8604 18.0092 62.3581 17.9663 61.8546C17.9663 60.8922 20.0198 58.7747 20.3728 59.3519C21.0388 59.9015 21.7854 60.3452 22.5865 60.6673C23.8477 61.3404 25.2668 61.6617 26.6949 61.5976C29.1976 61.5976 30.288 61.2446 31.5693 60.0573C32.18 59.4727 32.6568 58.7627 32.9669 57.9762C33.2771 57.1896 33.4132 56.3453 33.3659 55.5012C33.3659 53.9288 33.3979 53.8996 34.3603 53.8996C35.8038 53.8996 36.4458 53.4504 39.6524 50.3065C42.9573 47.0337 42.6683 47.0016 43.1495 50.6915C43.3417 52.039 43.2776 52.1991 42.2192 53.2262C41.6023 53.7108 41.1899 54.4094 41.0639 55.1836C41.0639 56.3389 61.6937 77 62.8803 77C64.0355 77 76.9972 64.0383 76.9972 62.8831C76.9972 61.6993 56.3354 41.0667 55.1488 41.0667C54.3872 41.2024 53.7021 41.6136 53.2241 42.2219C52.0689 43.4057 51.7486 43.4754 48.3156 42.7992L47.4173 42.607L49.9841 39.9762C51.0728 38.938 52.0611 37.7993 52.9358 36.5753C53.2341 35.7201 53.3757 34.818 53.3536 33.9125C53.2896 28.8111 48.1241 23.6763 43.0227 23.6763C42.1298 23.6459 41.2387 23.7763 40.392 24.0614C39.1873 24.948 38.0603 25.9354 37.0231 27.0132L34.3923 29.5799L34.2001 28.6816C33.526 25.2486 33.5908 24.9276 34.7774 23.7731C35.3936 23.2885 35.8054 22.5902 35.9312 21.8164C35.9312 20.6326 15.3014 0 14.1148 0C13.509 0 11.7744 1.5403 6.641 6.67303ZM15.7206 4.97258L17.1321 6.41609L14.9825 8.59772L12.8329 10.7473L11.3253 9.20702L9.78498 7.69945L11.8705 5.6139C12.5592 4.85688 13.3104 4.15924 14.1162 3.52836C14.7051 3.94601 15.2435 4.43066 15.7206 4.97258ZM20.854 10.106L22.2655 11.5495L20.1159 13.7311L17.9656 15.8815L16.4587 14.3446L14.9184 12.837L17.0039 10.7515C17.6926 9.99449 18.4438 9.29685 19.2497 8.66597C19.8383 9.08231 20.3767 9.56555 20.854 10.106ZM9.30381 11.3894L10.7153 12.8329L8.56499 15.0152L6.41539 17.1648L4.90781 15.6245L3.36751 14.1169L5.45305 12.0314C6.14172 11.2744 6.89294 10.5767 7.69875 9.94584C8.28786 10.3632 8.8265 10.8477 9.30381 11.3894ZM25.9867 15.2394L27.3982 16.6829L25.2486 18.8646L23.099 21.0142L21.5914 19.4739L20.0546 17.9656L22.1402 15.8801C22.8288 15.123 23.5801 14.4254 24.3859 13.7945C24.9738 14.2126 25.5106 14.6974 25.9867 15.2394ZM14.4365 16.5228L15.848 17.9663L13.6984 20.1479L11.5488 22.2975L10.0412 20.7572L8.50093 19.2496L10.5844 17.1648C11.2731 16.4078 12.0243 15.7101 12.8301 15.0793C13.4199 15.4965 13.9586 15.9809 14.4365 16.5228ZM31.1195 20.3729L32.531 21.8164L30.3814 23.998L28.2318 26.1476L26.7242 24.6073L25.1839 23.0997L27.2694 21.0142C27.9581 20.2572 28.7093 19.5595 29.5151 18.9286C30.1045 19.3462 30.6434 19.8309 31.1209 20.3729H31.1195ZM19.5707 21.6562L20.9821 23.0997L18.8325 25.2814L16.6829 27.431L15.1754 25.8907L13.6351 24.3831L15.7206 22.2975C16.4093 21.5405 17.1605 20.8429 17.9663 20.212C18.5552 20.6296 19.0936 21.1143 19.5707 21.6562ZM24.7041 26.7896L26.1156 28.2331L23.966 30.4148L21.8164 32.5644L20.3088 31.0241L18.7685 29.5165L20.854 27.431C21.5427 26.674 22.2939 25.9763 23.0997 25.3454C23.6886 25.7631 24.227 26.2477 24.7041 26.7896ZM45.9752 27.5278C49.1833 29.2602 51.3008 33.3345 50.1143 35.4841C49.9221 35.8372 47.3233 38.532 44.3075 41.5158L38.8558 46.9696L38.5028 46.0073C37.3014 42.924 34.9733 40.4125 31.9899 38.9812L30.0652 38.1149L35.4876 32.6605C38.4714 29.6446 41.3592 27.0138 41.8724 26.7889C43.0234 26.2764 43.9217 26.4366 45.9752 27.5278ZM30.639 41.5158C32.578 42.5502 34.1894 44.1058 35.2913 46.0073C36.6066 48.7341 35.8365 51.0125 33.5588 51.0125C32.6605 51.0125 32.4035 50.8524 32.0512 49.9861C31.5059 48.6708 28.3292 45.4947 27.0139 44.9488C26.1476 44.5958 25.9874 44.3395 25.9874 43.4412C25.9874 41.323 28.073 40.4574 30.639 41.5158ZM56.7866 46.0421L58.1981 47.4856L56.0485 49.6672L53.8968 51.8147L52.392 50.2758L50.8517 48.7682L52.9372 46.6827C53.6259 45.9257 54.3771 45.228 55.1829 44.5972C55.7717 45.0142 56.3101 45.4981 56.7873 46.0393L56.7866 46.0421ZM24.929 47.1945C28.073 48.7021 30.4795 52.1998 30.4795 55.2157C30.4795 56.5951 30.3194 56.9802 29.5492 57.7824C28.2659 59.0358 26.0522 59.0657 23.6777 57.8785L22.0413 57.0429L23.7738 55.3104L25.4742 53.5779L24.4478 52.5515L23.4214 51.5251L21.6889 53.2255L19.9564 54.958L19.1208 53.3216C17.937 50.9478 17.9656 48.7334 19.2169 47.4501C20.0191 46.6479 20.4007 46.5198 21.8477 46.5198C22.9111 46.5227 23.9617 46.7527 24.929 47.1945ZM61.9207 51.1727L63.3322 52.6162L61.1826 54.7979L59.033 56.9475L57.5254 55.4072L55.9858 53.8968L58.0714 51.8113C58.76 51.0542 59.5113 50.3566 60.3171 49.7257C60.9059 50.1443 61.4441 50.6299 61.9207 51.1727ZM50.3705 52.4561L51.782 53.8996L49.6324 56.0812L47.4828 58.2308L45.9752 56.6905L44.4349 55.1829L46.5205 53.0974C47.2091 52.3404 47.9603 51.6427 48.7661 51.0119C49.3551 51.4295 49.8935 51.9142 50.3705 52.4561ZM67.0535 56.3061L68.4649 57.7497L66.3153 59.9313L64.1657 62.0809L62.6582 60.5406L61.1178 59.033L63.2034 56.9475C63.8921 56.1905 64.6433 55.4928 65.4491 54.8619C66.0383 55.2795 66.5762 55.7642 67.0535 56.3061ZM55.5039 57.5874L56.9154 59.0309L54.7658 61.2126L52.6162 63.367L51.1114 61.8246L49.5711 60.3171L51.6567 58.2315C52.3436 57.4747 53.0929 56.7771 53.8968 56.146C54.4865 56.5626 55.0259 57.0463 55.5039 57.5874ZM72.1869 61.4375L73.5984 62.881L71.4488 65.0626L69.2992 67.2122L67.7916 65.6719L66.2513 64.1643L68.3368 62.0788C69.0255 61.3218 69.7767 60.6241 70.5825 59.9933C71.1718 60.4115 71.7104 60.8969 72.1876 61.4396L72.1869 61.4375ZM60.6374 62.7229L62.0489 64.1664L59.8992 66.3481L57.7496 68.4977L56.2421 66.9574L54.7018 65.4498L56.7873 63.367C57.4758 62.6088 58.2271 61.91 59.033 61.278C59.622 61.6959 60.1604 62.1808 60.6374 62.7229ZM65.7708 67.8563L67.1823 69.2999L65.0327 71.4815L62.8831 73.6311L61.3755 72.0908L59.8352 70.5832L61.9207 68.4977C62.6094 67.7407 63.3606 67.043 64.1664 66.4121C64.7553 66.8298 65.2937 67.3144 65.7708 67.8563Z" fill="white"/>
<path d="M42.35 7.05848V8.98316H39.7833V11.5499H42.35V15.3999H44.9167V11.5499H47.4835V8.98316H44.9167V5.13379H42.35V7.05848Z" fill="white"/>
<path d="M69.2999 34.0077V35.9324H66.7332V38.4991H69.2999V42.3492H71.8666V38.4991H74.4333V35.9324H71.8666V32.083H69.2999V34.0077Z" fill="white"/>
<path d="M2.56671 37.8583V39.783H0V42.3497H2.56671V46.1997H5.13343V42.3497H7.70014V39.783H5.13343V35.9336H2.56671V37.8583Z" fill="white"/>
<path d="M6.41681 61.4399C6.41681 65.643 10.652 70.1024 15.1113 70.5195L16.6837 70.6797V69.1721C16.6837 67.7926 16.6516 67.6965 15.8174 67.6965C12.8977 67.6645 9.30453 64.0394 9.30453 61.1196C9.30453 60.3815 9.17641 60.3174 7.86102 60.3174C6.41681 60.3167 6.41681 60.3167 6.41681 61.4399Z" fill="white"/>
<path d="M0 63.0111C0 69.813 7.21897 76.9992 14.0201 76.9992H15.3996V74.2083L13.6351 74.0161C8.40553 73.4708 3.52906 68.5937 2.98104 63.362L2.79094 61.5996H0V63.0111Z" fill="white"/>
</g>
</g>
<defs>
<clipPath id="clip0_182_1669">
<rect width="77" height="77" fill="white"/>
</clipPath>
</defs>
</svg>
